<svg width="36" height="48" viewBox="0 0 36 48" fill="none" xmlns="http://www.w3.org/2000/svg">
<path d="M1.36048 48V40.7983L18.1875 25.2177C19.6187 23.8327 20.8189 22.5863 21.7884 21.4783C22.7732 20.3704 23.5196 19.2855 24.0274 18.2237C24.5352 17.1465 24.7891 15.9847 24.7891 14.7383C24.7891 13.3533 24.4736 12.1607 23.8427 11.1605C23.2118 10.1449 22.3501 9.36778 21.2575 8.82919C20.1649 8.27521 18.9262 7.99822 17.5412 7.99822C16.0947 7.99822 14.8329 8.2906 13.7557 8.87535C12.6785 9.46011 11.8476 10.2988 11.2628 11.3913C10.6781 12.4839 10.3857 13.7842 10.3857 15.2923H0.898837C0.898837 12.1992 1.599 9.51397 2.99933 7.23651C4.39967 4.95904 6.36167 3.19709 8.88534 1.95064C11.409 0.704188 14.3174 0.0809641 17.6105 0.0809641C20.9959 0.0809641 23.9428 0.681106 26.451 1.88139C28.9747 3.06629 30.9367 4.71283 32.337 6.82102C33.7374 8.92921 34.4375 11.3452 34.4375 14.0689C34.4375 15.8539 34.0836 17.6159 33.3758 19.3548C32.6833 21.0936 31.4445 23.0249 29.6595 25.1484C27.8745 27.2566 25.3585 29.788 22.1116 32.7425L15.2099 39.5057V39.8288H35.0608V48H1.36048Z" fill="white"/>
</svg>
