<svg width="38" height="49" viewBox="0 0 38 49" fill="none" xmlns="http://www.w3.org/2000/svg">
<path d="M18.8817 48.6463C15.4347 48.6463 12.3648 48.0539 9.67183 46.869C6.99427 45.6687 4.87839 44.0221 3.32417 41.9293C1.78535 39.8211 0.992853 37.3898 0.946689 34.6353H11.0106C11.0722 35.7894 11.4492 36.805 12.1416 37.6822C12.8495 38.5439 13.7882 39.2133 14.9577 39.6903C16.1272 40.1674 17.4429 40.4059 18.9048 40.4059C20.4282 40.4059 21.7747 40.1366 22.9442 39.598C24.1137 39.0594 25.0293 38.3131 25.691 37.359C26.3527 36.4049 26.6836 35.3047 26.6836 34.0582C26.6836 32.7964 26.3296 31.6808 25.6218 30.7113C24.9293 29.7264 23.9291 28.957 22.6211 28.4031C21.3284 27.8491 19.7896 27.5721 18.0046 27.5721H13.5958V20.2319H18.0046C19.5126 20.2319 20.8437 19.9703 21.9978 19.4471C23.1673 18.9239 24.0752 18.2006 24.7215 17.2773C25.3679 16.3387 25.691 15.2461 25.691 13.9996C25.691 12.8147 25.4063 11.776 24.837 10.8835C24.283 9.97561 23.4982 9.26776 22.4826 8.75994C21.4823 8.25213 20.3128 7.99822 18.974 7.99822C17.6199 7.99822 16.3811 8.24444 15.2578 8.73686C14.1344 9.21389 13.2342 9.89867 12.5571 10.7912C11.88 11.6837 11.5184 12.7301 11.4723 13.9304H1.89307C1.93923 11.2067 2.71634 8.80611 4.22439 6.72869C5.73244 4.65128 7.76369 3.02782 10.3181 1.85831C12.888 0.673412 15.7887 0.0809641 19.0202 0.0809641C22.2825 0.0809641 25.137 0.673412 27.5838 1.85831C30.0305 3.0432 31.9309 4.64358 33.2851 6.65944C34.6547 8.65992 35.3318 10.9066 35.3164 13.3995C35.3318 16.0463 34.5085 18.2545 32.8465 20.0241C31.2 21.7938 29.0533 22.9171 26.4066 23.3942V23.7635C29.8843 24.2098 32.5311 25.4177 34.3469 27.3874C36.1781 29.3417 37.086 31.7885 37.0706 34.7276C37.086 37.4206 36.3089 39.8134 34.7393 41.9062C33.1851 43.9991 31.0384 45.6456 28.2993 46.8459C25.5602 48.0462 22.421 48.6463 18.8817 48.6463Z" fill="white"/>
</svg>
