<svg width="80" height="80" viewBox="0 0 80 80" fill="none" xmlns="http://www.w3.org/2000/svg">
<path d="M52.7344 34.3125L50.7812 36.25C50.4062 36.625 50.4062 37.2344 50.7812 37.6094L66.375 53.2031C66.75 53.5781 67.3594 53.5781 67.7344 53.2031L69.6719 51.2656C70.0469 50.8906 70.0469 50.2812 69.6719 49.9062L54.0781 34.3125C53.8906 34.125 53.6406 34.0313 53.3906 34.0313C53.1563 34.0313 52.9219 34.125 52.7344 34.3125ZM49.2344 34.7031L51.1719 32.7656C51.7813 32.1562 52.5938 31.8438 53.4062 31.8438C54.2188 31.8438 55.0156 32.1562 55.6406 32.7656L71.2344 48.3594C72.4688 49.5938 72.4688 51.5938 71.2344 52.8125L69.2969 54.75C68.0625 55.9844 66.0625 55.9844 64.8438 54.75L64.0625 53.9688L62.625 55.3906L57.5625 61.1094C60.1719 64.2656 57.6875 68.1094 54.7813 68.3125C54.6406 70.5625 52.2969 72.7344 50.0625 72.5469C49.25 74.9219 45.4844 77.75 43.3281 75.8281L42.3906 75.0312L40.5625 76.8594C38.9375 78.4844 36.625 77.8438 35.2187 76.4219C34.7031 75.9062 34.2812 75.2656 34.0469 74.5781C31.8125 75.5156 29.0781 73.5625 28.4844 71.2344C25.8906 71.7188 23 68.8281 23.4688 66.2188C20.9062 65.5469 18.8594 62.3594 20.4375 60.0781L17.3125 55.2969L15.9844 53.9688L15.2031 54.75C13.9688 55.9844 11.9688 55.9844 10.75 54.75L8.76562 52.8125C7.53125 51.5781 7.53125 49.5781 8.76562 48.3594L24.3594 32.7656C24.9688 32.1562 25.7812 31.8438 26.5938 31.8438C27.4062 31.8438 28.2031 32.1562 28.8281 32.7656L30.7656 34.7031C32 35.9375 32 37.9375 30.7656 39.1562L30.3906 39.5312L31.5781 40.7188L37.7031 42.0156C37.7344 42.0156 37.7656 42.0312 37.7969 42.0312C38.9844 41.3281 40.7969 40.9219 42.375 40.7812H42.4531L48.5313 40.6406L49.6406 39.5312L49.2656 39.1562C48.0156 37.9375 48.0156 35.9375 49.2344 34.7031ZM36.3125 72.6094C35.0937 73.8281 37.7812 76.5156 39 75.2969L41.875 72.4219C43.0938 71.2031 40.4062 68.5156 39.1875 69.7344L36.3125 72.6094ZM40.1406 67.25C42.9375 67.4531 45.5156 70.9688 43.8594 73.4531L44.75 74.2188C45 74.4375 45.5781 74.2344 46.1875 73.8438C46.7969 73.4531 47.4219 72.8594 47.7656 72.25C47.9531 71.9219 48.0781 71.6562 48.0312 71.6094L48.1094 71.5312C47.9531 71.4844 47.8125 71.3906 47.6875 71.2812L43.2812 66.8281C42.8594 66.4062 42.8594 65.7188 43.2812 65.2812C43.7031 64.8594 44.3906 64.8594 44.8281 65.2812L49.25 69.7031C49.375 69.8281 49.4531 69.9688 49.5 70.1094L49.5781 70.0312C50.4062 70.8594 51.8438 69.8906 52.3594 68.8906C52.6094 68.4062 52.6562 67.8594 52.3438 67.4531C52.3125 67.4219 52.2812 67.3906 52.25 67.3594L47.25 62.3281C46.8281 61.9062 46.8281 61.2188 47.25 60.7812C47.6719 60.3594 48.3594 60.3594 48.7969 60.7812L53.6562 65.6719C53.7031 65.7031 53.75 65.75 53.7969 65.7812C55.0469 66.9844 57.8594 64.4062 55.6094 62.1875C55.5625 62.1406 55.5156 62.0781 55.4688 62.0156L55.2969 61.875L46.7344 53.3594C44.8594 51.5 42.5156 50.0781 40.6406 51.9688C38.1094 54.5156 35.2031 54.625 33.1094 53.7969C31.9375 53.3438 30.7969 52.5 30.2656 51.4375C29.75 50.4219 29.8125 49.3594 30.6562 48.5469C30.7656 48.4531 30.875 48.375 31 48.3281C33.4062 47.25 34.625 45.6719 35.7969 44.125C35.875 44.0312 35.9375 43.9375 36.0156 43.8438L30.875 42.7656C30.6406 42.7344 30.4219 42.625 30.25 42.4531L28.875 41.0781L17.5312 52.4219L18.9219 53.8125C19.1094 54 21.6094 57.875 21.9844 58.4375L24.9531 55.4688C26.5781 53.8438 28.8906 54.4844 30.2969 55.9062C31.0469 56.6562 31.6094 57.7031 31.6875 58.75C33.7812 58.9062 35.7656 60.8906 35.9219 62.9844C37.9844 63.1563 40 65.1562 40.1406 67.25ZM33.5469 72.2969L37.6406 68.2031C38.8594 66.9844 36.1719 64.2969 34.9531 65.5156L30.8594 69.6094C29.625 70.8281 32.3281 73.5156 33.5469 72.2969ZM30.7031 61.2656L25.9063 66.0781C24.6875 67.2969 27.375 69.9844 28.5938 68.7656L33.4062 63.9531C34.625 62.75 31.9375 60.0469 30.7031 61.2656ZM61.0938 53.8281L62.4688 52.4375L51.125 41.0938L49.7344 42.4688C49.5469 42.6562 49.2812 42.7812 48.9844 42.7812L42.5 42.9219C41.5469 43.0156 40.6875 43.2031 39.9844 43.4219C39.2812 43.6406 38.8125 43.8438 38.7031 43.9844C38.2969 44.4375 37.9062 44.9531 37.5156 45.4688C36.2031 47.1875 34.8594 48.9375 32.1094 50.2344C32.125 50.5 32.5156 50.9375 32.7656 51.1562C34.3594 52.4688 37 52.5312 39.0781 50.4375C40.3438 49.1719 41.8438 48.6875 43.5156 48.9844C45.0156 49.2656 46.6094 50.2031 48.25 51.8281L55.9844 59.5156L60.9531 53.9219C61.0156 53.9062 61.0469 53.8594 61.0938 53.8281ZM26.4688 57.0312L22.375 61.125C21.1562 62.3438 23.8438 65.0312 25.0625 63.8125L29.1562 59.7188C30.375 58.5156 27.6875 55.8125 26.4688 57.0312ZM29.2031 36.25L27.2656 34.3125C27.0781 34.125 26.8281 34.0313 26.5781 34.0313C26.3281 34.0313 26.0781 34.125 25.8906 34.3125L10.3125 49.9062C9.9375 50.2812 9.9375 50.8906 10.3125 51.2656L12.25 53.2031C12.625 53.5781 13.2344 53.5781 13.6094 53.2031L29.2031 37.6094C29.5781 37.25 29.5781 36.625 29.2031 36.25ZM37.2656 12.8594H42.7344C43.3438 12.8594 43.8281 13.3438 43.8281 13.9531V17.1875L53.6719 15.6875V9.21875H26.3281V15.7031L36.1562 17.2031V13.9531C36.1719 13.3594 36.6562 12.8594 37.2656 12.8594ZM43.8281 19.4062V22.2344C43.8281 22.8438 43.3438 23.3281 42.7344 23.3281H37.2656C36.6562 23.3281 36.1719 22.8438 36.1719 22.2344V19.4062L27.5469 18.0938V27.5469H52.4531V18.0938L43.8281 19.4062ZM41.6406 15.0469H38.3594V21.125H41.6406V15.0469ZM33.7188 7.03125V5.125C33.7188 3.45312 35.2187 2.17188 36.9062 2.17188H43.1094C44.7969 2.17188 46.2969 3.4375 46.2969 5.125V7.03125H54.7813C55.3906 7.03125 55.875 7.51562 55.875 8.125V16.6406C55.875 17.1719 55.4844 17.6406 54.9375 17.7188L54.6562 17.7656V28.6406C54.6562 29.25 54.1719 29.7344 53.5625 29.7344H26.4531C25.8438 29.7344 25.3594 29.25 25.3594 28.6406V17.7656L25.1094 17.7188C24.5625 17.6562 24.1406 17.2031 24.1406 16.6406V8.125C24.1406 7.51562 24.625 7.03125 25.2344 7.03125H33.7188ZM44.0938 7.03125V5.125C44.0938 4.67188 43.5781 4.375 43.1094 4.375H36.9062C36.4219 4.375 35.9219 4.67188 35.9219 5.125V7.03125H44.0938Z" fill="white"/>
</svg>
