<svg width="66" height="66" viewBox="0 0 66 66" fill="none" xmlns="http://www.w3.org/2000/svg">
<g clip-path="url(#clip0_126_570)">
<path d="M58.8064 59.4666L51.352 39.8673C52.0885 39.427 52.7287 38.8426 53.2343 38.1492C53.7774 37.4028 54.1491 36.5457 54.323 35.6391C54.4969 34.7325 54.4687 33.7987 54.2403 32.9043C54.0473 32.1222 54.0798 31.3014 54.3339 30.537C54.5881 29.7726 55.0536 29.0958 55.6765 28.585C56.3975 27.994 56.9781 27.2501 57.3765 26.4072C57.7748 25.5643 57.9808 24.6434 57.9797 23.7111C57.9785 22.7788 57.7702 21.8584 57.3697 21.0165C56.9693 20.1746 56.3868 19.4322 55.6643 18.843C55.0437 18.3302 54.5809 17.6521 54.3295 16.8873C54.0781 16.1225 54.0484 15.3021 54.2437 14.5211C54.4703 13.6282 54.4973 12.6964 54.3229 11.7919C54.1485 10.8874 53.7769 10.0324 53.2347 9.28773C52.6786 8.52281 51.9608 7.88992 51.1322 7.43412C50.3036 6.97832 49.3847 6.71084 48.441 6.65072C47.6291 6.59608 46.8484 6.31663 46.1862 5.84364C45.5241 5.37065 45.0066 4.72277 44.6916 3.97246C44.339 3.11353 43.8032 2.34188 43.1216 1.71135C42.4401 1.08081 41.6291 0.60658 40.7454 0.321731C39.849 0.0286441 38.8995 -0.0654309 37.9631 0.0460636C37.0266 0.157558 36.1258 0.471939 35.3233 0.967293C34.6236 1.3948 33.8195 1.621 32.9995 1.621C32.1795 1.621 31.3754 1.3948 30.6757 0.967293C29.8732 0.47192 28.9723 0.157527 28.0359 0.0460322C27.0994 -0.0654628 26.1499 0.0286231 25.2535 0.321731C24.3701 0.606813 23.5595 1.08114 22.8782 1.71163C22.1969 2.34213 21.6614 3.11363 21.3088 3.97236C20.9929 4.72406 20.4738 5.37291 19.8098 5.84613C19.1458 6.31936 18.363 6.59825 17.5494 6.65154C16.6073 6.71261 15.6902 6.98057 14.8634 7.43635C14.0365 7.89213 13.3204 8.52453 12.7657 9.28855C12.2226 10.035 11.8509 10.8921 11.677 11.7987C11.5031 12.7053 11.5313 13.6391 11.7596 14.5335C11.9527 15.3156 11.9202 16.1364 11.666 16.9008C11.4119 17.6652 10.9464 18.342 10.3235 18.8529C9.60251 19.4439 9.02184 20.1877 8.62351 21.0306C8.22518 21.8735 8.01915 22.7944 8.02031 23.7267C8.02148 24.659 8.22981 25.5794 8.63024 26.4213C9.03067 27.2632 9.6132 28.0056 10.3357 28.5948C10.9563 29.1076 11.419 29.7856 11.6704 30.5503C11.9218 31.3151 11.9515 32.1354 11.7562 32.9163C11.5297 33.8092 11.5027 34.7411 11.6771 35.6456C11.8515 36.5501 12.2231 37.4051 12.7653 38.1497C13.271 38.8428 13.9113 39.4267 14.6478 39.8667L7.19358 59.4666C7.12333 59.6509 7.10743 59.8514 7.14776 60.0445C7.18808 60.2375 7.28295 60.4149 7.42109 60.5557C7.55924 60.6964 7.73486 60.7946 7.92712 60.8385C8.11937 60.8824 8.32019 60.8702 8.50574 60.8034L16.6249 57.885L20.7509 65.4617C20.8395 65.6245 20.9703 65.7605 21.1296 65.8552C21.2889 65.95 21.4709 66 21.6562 66C21.6794 66 21.7025 65.999 21.7257 65.9975C21.9225 65.9842 22.1114 65.9148 22.2699 65.7974C22.4284 65.68 22.5499 65.5197 22.62 65.3353L29.599 46.9956C29.9737 46.8539 30.3345 46.6778 30.6767 46.4697C31.3763 46.0424 32.1802 45.8163 33 45.8163C33.8198 45.8163 34.6237 46.0424 35.3233 46.4697L35.3243 46.4702C35.6657 46.6756 36.0252 46.8491 36.3984 46.9885L43.3799 65.3344C43.4501 65.5187 43.5716 65.6791 43.7301 65.7965C43.8886 65.9138 44.0775 65.9833 44.2742 65.9966C44.2974 65.998 44.3205 65.9991 44.3437 65.9991C44.5291 65.999 44.711 65.949 44.8704 65.8543C45.0297 65.7596 45.1605 65.6236 45.2491 65.4607L49.3751 57.884L57.4942 60.8025C57.6798 60.8693 57.8806 60.8815 58.0729 60.8375C58.2651 60.7936 58.4407 60.6955 58.5789 60.5547C58.717 60.414 58.8119 60.2366 58.8522 60.0435C58.8926 59.8505 58.8766 59.6509 58.8064 59.4666ZM21.4901 62.5064L18.0137 56.123C17.8959 55.907 17.7048 55.7402 17.4749 55.6527C17.245 55.5652 16.9914 55.5627 16.7599 55.6456L9.91773 58.1045L16.5632 40.6329C16.8908 40.7096 17.2239 40.761 17.5594 40.7867C18.3713 40.8414 19.152 41.1208 19.8142 41.5938C20.4763 42.0668 20.9938 42.7147 21.3088 43.465C21.6614 44.3239 22.1971 45.0955 22.8786 45.726C23.5601 46.3565 24.3709 46.8307 25.2546 47.1156C25.8919 47.3214 26.5571 47.4278 27.2267 47.431L21.4901 62.5064ZM29.592 44.715C29.0446 45.0531 28.43 45.2675 27.7911 45.3434C27.1522 45.4194 26.5044 45.3549 25.893 45.1545C25.2944 44.962 24.7449 44.6413 24.2829 44.2146C23.8209 43.7879 23.4576 43.2656 23.2182 42.6841C22.7549 41.5764 21.9923 40.6195 21.0157 39.9208C20.0392 39.2221 18.8874 38.8092 17.6893 38.7284C17.0488 38.6873 16.4251 38.5056 15.8627 38.1962C15.3003 37.8868 14.813 37.4573 14.4354 36.9382C14.0702 36.4363 13.8202 35.86 13.7034 35.2503C13.5866 34.6406 13.6059 34.0127 13.7598 33.4113C14.0473 32.2505 14.0005 31.0319 13.6248 29.8965C13.2492 28.7611 12.56 27.7551 11.6368 26.9948C11.1501 26.5973 10.7582 26.0963 10.4893 25.5283C10.2205 24.9603 10.0817 24.3395 10.0828 23.7111C10.084 23.0827 10.2251 22.4625 10.496 21.8955C10.7669 21.3284 11.1608 20.8289 11.6489 20.4332C12.5698 19.671 13.2564 18.6639 13.6294 17.5282C14.0024 16.3925 14.0466 15.1744 13.7569 14.0147C13.6048 13.4148 13.5867 12.7888 13.704 12.1811C13.8214 11.5735 14.0711 10.9992 14.4356 10.499C14.8147 9.97883 15.3038 9.54863 15.8682 9.23912C16.4326 8.9296 17.0583 8.74838 17.7007 8.70837C18.8968 8.62599 20.0464 8.21239 21.0209 7.51387C21.9954 6.81534 22.7562 5.85944 23.2184 4.75312C23.4576 4.17154 23.8209 3.64921 24.2829 3.22261C24.7449 2.79601 25.2945 2.47543 25.8932 2.28327C26.5048 2.08309 27.1527 2.0187 27.7918 2.09461C28.4308 2.17052 29.0456 2.3849 29.5933 2.72279C30.6194 3.34939 31.7984 3.68092 33.0007 3.68092C34.203 3.68092 35.3821 3.34939 36.4082 2.72279C36.9557 2.38498 37.5703 2.17065 38.2092 2.09474C38.848 2.01884 39.4957 2.08317 40.1072 2.28327C40.7058 2.47576 41.2553 2.79652 41.7173 3.22318C42.1793 3.64984 42.5426 4.17213 42.782 4.75363C43.2453 5.86142 44.0079 6.81828 44.9845 7.51698C45.961 8.21567 47.1128 8.62857 48.3109 8.7094C48.9514 8.75051 49.5751 8.93222 50.1374 9.24162C50.6998 9.55102 51.1871 9.9805 51.5648 10.4995C51.93 11.0015 52.18 11.5778 52.2968 12.1875C52.4136 12.7971 52.3943 13.4251 52.2404 14.0264C51.9529 15.1873 51.9997 16.4058 52.3754 17.5412C52.751 18.6767 53.4402 19.6826 54.3634 20.443C54.85 20.8405 55.242 21.3415 55.5108 21.9095C55.7796 22.4775 55.9185 23.0983 55.9174 23.7267C55.9162 24.3551 55.7751 24.9753 55.5042 25.5423C55.2333 26.1093 54.8394 26.6089 54.3513 27.0046C53.4304 27.7667 52.7438 28.7737 52.3708 29.9094C51.9978 31.0451 51.9535 32.2631 52.2431 33.4228C52.3952 34.0227 52.4133 34.6487 52.296 35.2563C52.1786 35.864 51.9289 36.4383 51.5644 36.9384C51.1853 37.4587 50.6962 37.8889 50.1318 38.1984C49.5674 38.5079 48.9417 38.6891 48.2993 38.7291C47.1032 38.8115 45.9536 39.2251 44.9791 39.9236C44.0046 40.6221 43.2437 41.578 42.7816 42.6843C42.5424 43.2659 42.1791 43.7883 41.7171 44.2149C41.2551 44.6415 40.7055 44.962 40.1067 45.1542C39.4952 45.355 38.8472 45.4197 38.2081 45.3438C37.569 45.2678 36.9542 45.0531 36.4067 44.7147C35.3806 44.0882 34.2016 43.7567 32.9993 43.7568C31.7971 43.7568 30.6181 44.0884 29.592 44.715ZM49.2401 55.6452C49.0085 55.5621 48.7549 55.5646 48.525 55.6521C48.2951 55.7397 48.104 55.9065 47.9863 56.1226L44.5099 62.506L38.7741 47.4334C39.4436 47.4295 40.1085 47.3225 40.7454 47.1162C41.6292 46.8312 42.4401 46.3568 43.1218 45.7262C43.8034 45.0956 44.3394 44.324 44.6922 43.465C45.0077 42.7132 45.5265 42.0643 46.1904 41.591C46.8543 41.1178 47.637 40.839 48.4506 40.7859C48.7829 40.7604 49.1127 40.7094 49.4372 40.6335L56.0823 58.1042L49.2401 55.6452Z" fill="white"/>
<path d="M48.4688 23.7188C48.4688 20.6593 47.5615 17.6686 45.8618 15.1248C44.1621 12.581 41.7462 10.5983 38.9196 9.4275C36.0931 8.2567 32.9828 7.95037 29.9822 8.54723C26.9816 9.1441 24.2253 10.6174 22.0619 12.7807C19.8986 14.944 18.4253 17.7003 17.8285 20.701C17.2316 23.7016 17.538 26.8118 18.7087 29.6384C19.8795 32.4649 21.8622 34.8808 24.406 36.5806C26.9499 38.2803 29.9406 39.1875 33 39.1875C37.1012 39.1829 41.0331 37.5517 43.933 34.6518C46.833 31.7518 48.4642 27.8199 48.4688 23.7188ZM33 37.125C30.3485 37.125 27.7565 36.3387 25.5519 34.8656C23.3472 33.3925 21.6289 31.2988 20.6142 28.8491C19.5996 26.3994 19.3341 23.7039 19.8514 21.1033C20.3686 18.5028 21.6455 16.114 23.5204 14.2391C25.3953 12.3642 27.784 11.0874 30.3846 10.5701C32.9851 10.0528 35.6807 10.3183 38.1304 11.333C40.58 12.3477 42.6738 14.066 44.1469 16.2706C45.62 18.4753 46.4063 21.0672 46.4063 23.7188C46.4022 27.2731 44.9885 30.6807 42.4752 33.194C39.9619 35.7073 36.5543 37.121 33 37.125Z" fill="white"/>
<path d="M41.2017 20.2992L36.1734 19.5686L33.9246 15.0125C33.8297 14.8517 33.6946 14.7184 33.5324 14.6259C33.3703 14.5333 33.1868 14.4846 33.0001 14.4846C32.8134 14.4846 32.6299 14.5333 32.4678 14.6259C32.3056 14.7184 32.1705 14.8517 32.0756 15.0125L29.8268 19.5686L24.7985 20.2992C24.6079 20.3268 24.4289 20.4071 24.2817 20.5311C24.1344 20.6552 24.0249 20.8179 23.9653 21.001C23.9058 21.1841 23.8987 21.3802 23.9449 21.5671C23.991 21.754 24.0885 21.9242 24.2264 22.0585L27.866 25.605L27.007 30.6128C26.9746 30.8023 26.9958 30.9971 27.0683 31.1752C27.1407 31.3533 27.2616 31.5076 27.4171 31.6207C27.5726 31.7337 27.7566 31.8011 27.9484 31.8151C28.1402 31.8291 28.332 31.7892 28.5023 31.6999L33.0001 29.3358L37.4977 31.6999C37.668 31.7892 37.8599 31.8291 38.0516 31.8151C38.2434 31.8011 38.4274 31.7337 38.5829 31.6207C38.7384 31.5076 38.8593 31.3533 38.9317 31.1752C39.0042 30.9971 39.0254 30.8023 38.993 30.6128L38.134 25.605L41.7736 22.0585C41.9115 21.9242 42.009 21.754 42.0551 21.5671C42.1013 21.3802 42.0942 21.1841 42.0347 21.001C41.9751 20.8179 41.8656 20.6552 41.7183 20.5311C41.5711 20.4071 41.3923 20.3268 41.2017 20.2992ZM36.3064 24.5067C36.1868 24.6236 36.0974 24.7677 36.0458 24.9267C35.9942 25.0857 35.982 25.2548 36.0102 25.4196L36.6074 28.9021L33.4794 27.258C33.3316 27.1802 33.167 27.1396 32.9999 27.1396C32.8328 27.1396 32.6682 27.1802 32.5204 27.258L29.3928 28.9017L29.99 25.4192C30.0182 25.2544 30.006 25.0853 29.9544 24.9263C29.9028 24.7672 29.8134 24.6231 29.6938 24.5063L27.1632 22.04L30.6599 21.5319C30.8254 21.5079 30.9826 21.4439 31.1179 21.3456C31.2531 21.2472 31.3624 21.1174 31.4363 20.9674L33.0001 17.7994L34.5641 20.9676C34.638 21.1176 34.7473 21.2474 34.8825 21.3458C35.0178 21.4442 35.175 21.5081 35.3405 21.5321L38.8372 22.0402L36.3064 24.5067Z" fill="white"/>
</g>
<defs>
<clipPath id="clip0_126_570">
<rect width="66" height="66" fill="white"/>
</clipPath>
</defs>
</svg>
