<svg width="64" height="64" viewBox="0 0 64 64" fill="none" xmlns="http://www.w3.org/2000/svg">
<g clip-path="url(#clip0_126_530)">
<path d="M61.7996 0H57.4574C56.9396 0 56.5199 0.41975 56.5199 0.9375C56.5199 1.45525 56.9396 1.875 57.4574 1.875H61.7996C61.979 1.875 62.1249 2.02087 62.1249 2.20025V17.6779H57.2508C56.1089 17.6779 55.18 18.6069 55.18 19.7486V19.8699C55.18 20.4201 55.3993 20.9436 55.7974 21.3441C56.2135 21.7626 56.4428 22.3181 56.4428 22.9084C56.4428 23.5386 56.1733 24.1414 55.7034 24.5622C55.2273 24.9887 54.6109 25.1845 53.9671 25.1135C52.9624 25.0025 52.1443 24.1947 52.0218 23.1927C51.9378 22.5052 52.1656 21.8322 52.6475 21.3462C53.047 20.943 53.267 20.4185 53.267 19.8692V19.7485C53.267 18.6066 52.338 17.6777 51.1963 17.6777H46.3221V12.8037C46.3221 12.6957 46.41 12.608 46.5179 12.608H46.6386C46.6895 12.608 46.7469 12.6359 46.7956 12.6842C47.6916 13.5725 48.9285 13.9936 50.1896 13.8394C52.0453 13.6125 53.5411 12.0982 53.7464 10.2387C53.8749 9.07537 53.5039 7.91162 52.7283 7.04575C51.9523 6.17925 50.8403 5.68225 49.6776 5.68225C48.5886 5.68225 47.5635 6.10512 46.7914 6.87287C46.7643 6.89975 46.7085 6.945 46.639 6.945H46.5178C46.4098 6.945 46.322 6.85712 46.322 6.74925V1.875H53.078C53.5958 1.875 54.0155 1.45525 54.0155 0.9375C54.0155 0.41975 53.5958 0 53.078 0H45.3845C44.8668 0 44.447 0.41975 44.447 0.9375V6.74912C44.447 7.891 45.376 8.81987 46.5178 8.81987H46.639C47.1893 8.81987 47.7128 8.60063 48.1133 8.2025C48.5318 7.78638 49.0873 7.55712 49.6776 7.55712C50.3079 7.55712 50.9106 7.82662 51.3315 8.29662C51.758 8.77275 51.9538 9.38937 51.8826 10.0329C51.7716 11.0376 50.9639 11.8557 49.9619 11.9782C49.2746 12.0622 48.6014 11.8344 48.1155 11.3526C47.7124 10.9531 47.1879 10.733 46.6385 10.733H46.5178C45.3759 10.733 44.447 11.662 44.447 12.8037V18.6154C44.447 19.1331 44.8668 19.5529 45.3845 19.5529H51.1961C51.3041 19.5529 51.3919 19.6407 51.3919 19.7486V19.8694C51.3919 19.9204 51.364 19.9776 51.3156 20.0265C50.4274 20.9225 50.0063 22.1596 50.1605 23.4205C50.3874 25.2761 51.9016 26.772 53.7611 26.9772C53.9126 26.994 54.064 27.0022 54.2149 27.0022C55.2225 27.0022 56.201 26.6336 56.9541 25.9591C57.8206 25.183 58.3176 24.0711 58.3176 22.9085C58.3176 21.8195 57.8948 20.7945 57.127 20.0222C57.1001 19.9951 57.0549 19.9394 57.0549 19.8699V19.7486C57.0549 19.6406 57.1428 19.5529 57.2506 19.5529H63.0624C63.5801 19.5529 63.9999 19.1331 63.9999 18.6154V2.20025C63.9999 0.987 63.0129 0 61.7996 0Z" fill="white"/>
<path d="M63.0625 44.447H57.2509C56.109 44.447 55.1802 45.376 55.1802 46.5178V46.639C55.1802 47.1893 55.3994 47.7128 55.7975 48.1133C56.2137 48.5318 56.4429 49.0873 56.4429 49.6776C56.4429 50.3079 56.1734 50.9106 55.7034 51.3315C55.2273 51.758 54.6108 51.9536 53.9672 51.8826C52.9624 51.7716 52.1443 50.9639 52.0218 49.962C51.9378 49.2745 52.1657 48.6015 52.6474 48.1156C53.0469 47.7125 53.267 47.188 53.267 46.6386V46.5179C53.267 45.376 52.338 44.4471 51.1963 44.4471H45.3847C44.8669 44.4471 44.4472 44.8669 44.4472 45.3846V51.1963C44.4472 51.3043 44.3593 51.392 44.2514 51.392H44.1307C44.0797 51.392 44.0224 51.3641 43.9735 51.3158C43.0775 50.4275 41.8407 50.0065 40.5795 50.1606C38.7239 50.3875 37.228 51.9018 37.0228 53.7613C36.8943 54.9246 37.2654 56.0884 38.0409 56.9543C38.817 57.8208 39.9289 58.3178 41.0915 58.3178C42.1805 58.3178 43.2055 57.8949 43.9778 57.1271C44.0049 57.1003 44.0607 57.055 44.1302 57.055H44.4473V63.0624C44.4473 63.5801 44.867 63.9999 45.3848 63.9999H61.7999C63.0132 63.9999 64.0002 63.0129 64.0002 61.7996V45.3845C64 44.8668 63.5803 44.447 63.0625 44.447ZM62.125 61.7996C62.125 61.979 61.9792 62.1249 61.7998 62.1249H46.3222V56.1175C46.3222 55.5998 45.9024 55.18 45.3847 55.18H44.13C43.5798 55.18 43.0563 55.3993 42.6558 55.7974C42.2373 56.2135 41.6818 56.4428 41.0915 56.4428C40.4613 56.4428 39.8585 56.1733 39.4377 55.7034C39.0112 55.2271 38.8154 54.6105 38.8864 53.9671C38.9974 52.9624 39.8052 52.1443 40.8072 52.0218C41.4942 51.9378 42.1677 52.1656 42.6537 52.6475C43.0569 53.047 43.5814 53.267 44.1307 53.267H44.2514C45.3933 53.267 46.3222 52.338 46.3222 51.1963V46.3221H51.1963C51.3043 46.3221 51.392 46.41 51.392 46.5179V46.6386C51.392 46.6895 51.3642 46.7469 51.3158 46.7956C50.4275 47.6916 50.0064 48.9288 50.1607 50.1896C50.3875 52.0453 51.9018 53.5411 53.7613 53.7464C54.9245 53.8746 56.0884 53.5039 56.9543 52.7283C57.8208 51.9523 58.3178 50.8403 58.3178 49.6776C58.3178 48.5886 57.8949 47.5635 57.1272 46.7914C57.1003 46.7643 57.055 46.7085 57.055 46.639V46.5178C57.055 46.4098 57.1429 46.322 57.2508 46.322H62.125V61.7996Z" fill="white"/>
<path d="M18.6154 44.4471H12.8038C12.6958 44.4471 12.608 44.3592 12.608 44.2513V44.1306C12.608 44.0796 12.6359 44.0223 12.6842 43.9734C13.5726 43.0773 13.9936 41.8403 13.8394 40.5794C13.6125 38.7238 12.0981 37.2279 10.2388 37.0227C9.07513 36.8939 7.91162 37.2653 7.04575 38.0408C6.17925 38.8169 5.68225 39.9288 5.68225 41.0914C5.68225 42.1804 6.10513 43.2054 6.87288 43.9777C6.89975 44.0048 6.945 44.0606 6.945 44.1301V44.2513C6.945 44.3593 6.85712 44.4471 6.74925 44.4471H0.9375C0.41975 44.4471 0 44.8668 0 45.3846V61.7997C0 63.0129 0.987 63.9999 2.20025 63.9999H4.28312C4.80087 63.9999 5.22062 63.5802 5.22062 63.0624C5.22062 62.5447 4.80087 62.1249 4.28312 62.1249H2.20025C2.02087 62.1249 1.875 61.9791 1.875 61.7997V46.3221H6.74913C7.891 46.3221 8.81987 45.3931 8.81987 44.2513V44.1301C8.81987 43.5798 8.60063 43.0563 8.2025 42.6558C7.78638 42.2373 7.55713 41.6818 7.55713 41.0916C7.55713 40.4613 7.82663 39.8586 8.2965 39.4377C8.77262 39.0112 9.389 38.8156 10.0328 38.8864C11.0374 38.9974 11.8556 39.8052 11.9781 40.8072C12.0622 41.4947 11.8343 42.1677 11.3524 42.6537C10.9529 43.0569 10.7329 43.5814 10.7329 44.1307V44.2514C10.7329 45.3933 11.6619 46.3222 12.8036 46.3222H17.6777V51.1958C17.6777 51.3041 17.5896 51.3921 17.4815 51.3921H17.3612C17.3104 51.3921 17.253 51.3642 17.2041 51.3158C16.308 50.4276 15.0709 50.0063 13.8101 50.1608C11.9545 50.3877 10.4587 51.9021 10.2535 53.7614C10.125 54.9248 10.496 56.0886 11.2716 56.9544C12.0476 57.8209 13.1596 58.3179 14.3223 58.3179C15.4113 58.3179 16.4364 57.8951 17.2085 57.1273C17.2356 57.1004 17.2914 57.0552 17.3609 57.0552H17.4816C17.5899 57.0552 17.6779 57.1433 17.6779 57.2514V62.1249H8.66075C8.143 62.1249 7.72325 62.5447 7.72325 63.0624C7.72325 63.5802 8.143 63.9999 8.66075 63.9999H18.6154C19.1331 63.9999 19.5529 63.5802 19.5529 63.0624V57.2513C19.5529 56.1092 18.6236 55.1801 17.4816 55.1801H17.3609C16.8106 55.1801 16.2871 55.3993 15.8866 55.7974C15.4681 56.2136 14.9126 56.4428 14.3223 56.4428C13.692 56.4428 13.0892 56.1733 12.6684 55.7033C12.2419 55.2272 12.0461 54.6106 12.1173 53.9671C12.2283 52.9624 13.036 52.1442 14.038 52.0217C14.725 51.9377 15.3984 52.1656 15.8844 52.6473C16.2875 53.0468 16.812 53.2669 17.3614 53.2669H17.4816C18.6237 53.2669 19.5529 52.3378 19.5529 51.1957V45.3846C19.5529 44.8668 19.1331 44.4471 18.6154 44.4471Z" fill="white"/>
<path d="M0.9375 19.5529H6.74913C7.891 19.5529 8.81987 18.6239 8.81987 17.4821V17.3609C8.81987 16.8106 8.60063 16.2871 8.2025 15.8866C7.78638 15.4681 7.55713 14.9126 7.55713 14.3223C7.55713 13.692 7.82663 13.0892 8.29663 12.6684C8.77275 12.2419 9.38988 12.0464 10.0329 12.1173C11.0376 12.2283 11.8557 13.036 11.9782 14.0379C12.0622 14.7254 11.8344 15.3984 11.3526 15.8842C10.9531 16.2874 10.733 16.8119 10.733 17.3612V17.482C10.733 18.6239 11.662 19.5527 12.8038 19.5527H18.6154C19.1331 19.5527 19.5529 19.133 19.5529 18.6152V12.8038C19.5529 12.6958 19.6407 12.608 19.7486 12.608H19.8694C19.9204 12.608 19.9776 12.6359 20.0265 12.6842C20.9225 13.5725 22.1591 13.9934 23.4205 13.8394C25.2761 13.6125 26.772 12.0983 26.9772 10.2388C27.1057 9.07538 26.7346 7.91162 25.9591 7.04575C25.183 6.17925 24.0711 5.68225 22.9085 5.68225C21.8195 5.68225 20.7945 6.10513 20.0222 6.87288C19.9951 6.89975 19.9394 6.945 19.8699 6.945H19.7486C19.6406 6.945 19.5529 6.85712 19.5529 6.74925V0.9375C19.5529 0.41975 19.1331 0 18.6154 0H2.20025C0.987 0 0 0.987 0 2.20025V18.6154C0 19.1331 0.41975 19.5529 0.9375 19.5529ZM1.875 2.20025C1.875 2.02087 2.02087 1.875 2.20025 1.875H17.6779V6.74913C17.6779 7.891 18.6069 8.81987 19.7486 8.81987H19.8699C20.4201 8.81987 20.9436 8.60063 21.3441 8.2025C21.7626 7.78638 22.3181 7.55713 22.9084 7.55713C23.5386 7.55713 24.1414 7.82663 24.5623 8.2965C24.9888 8.77275 25.1845 9.38937 25.1135 10.0328C25.0025 11.0375 24.1948 11.8556 23.1928 11.9781C22.5056 12.0621 21.8324 11.8343 21.3463 11.3524C20.943 10.9529 20.4185 10.7329 19.8692 10.7329H19.7485C18.6066 10.7329 17.6777 11.6619 17.6777 12.8036V17.6777H12.8038C12.6958 17.6777 12.608 17.5899 12.608 17.482V17.3612C12.608 17.3104 12.6359 17.253 12.6842 17.2043C13.5725 16.3083 13.9936 15.0711 13.8394 13.8103C13.6125 11.9546 12.0983 10.4587 10.2388 10.2535C9.07563 10.125 7.91162 10.496 7.04575 11.2716C6.17925 12.0476 5.68225 13.1596 5.68225 14.3223C5.68225 15.4113 6.10513 16.4364 6.87288 17.2085C6.89975 17.2356 6.945 17.2914 6.945 17.3609V17.4821C6.945 17.5901 6.85712 17.6779 6.74925 17.6779H1.875V2.20025Z" fill="white"/>
<path d="M29.8484 10.8402H30.5984C31.1161 10.8402 31.5359 10.4205 31.5359 9.90274C31.5359 9.38499 31.1161 8.96524 30.5984 8.96524H29.8484C29.3306 8.96524 28.9109 9.38499 28.9109 9.90274C28.9109 10.4205 29.3306 10.8402 29.8484 10.8402Z" fill="white"/>
<path d="M34.7927 10.8402H36.657C37.1747 10.8402 37.5945 10.4205 37.5945 9.90274C37.5945 9.38499 37.1747 8.96524 36.657 8.96524H34.7927C34.275 8.96524 33.8552 9.38499 33.8552 9.90274C33.8552 10.4205 34.275 10.8402 34.7927 10.8402Z" fill="white"/>
<path d="M40.8516 10.8402H41.6016C42.1193 10.8402 42.5391 10.4205 42.5391 9.90274C42.5391 9.38499 42.1193 8.96524 41.6016 8.96524H40.8516C40.3338 8.96524 39.9141 9.38499 39.9141 9.90274C39.9141 10.4205 40.3338 10.8402 40.8516 10.8402Z" fill="white"/>
<path d="M54.0972 31.5358C54.6149 31.5358 55.0347 31.1161 55.0347 30.5983V29.8483C55.0347 29.3306 54.6149 28.9108 54.0972 28.9108C53.5794 28.9108 53.1597 29.3306 53.1597 29.8483V30.5983C53.1597 31.1161 53.5794 31.5358 54.0972 31.5358Z" fill="white"/>
<path d="M53.1597 36.6571C53.1597 37.1748 53.5794 37.5946 54.0972 37.5946C54.6149 37.5946 55.0347 37.1748 55.0347 36.6571V34.7928C55.0347 34.2751 54.6149 33.8553 54.0972 33.8553C53.5794 33.8553 53.1597 34.2751 53.1597 34.7928V36.6571Z" fill="white"/>
<path d="M53.1597 41.6016C53.1597 42.1193 53.5794 42.5391 54.0972 42.5391C54.6149 42.5391 55.0347 42.1193 55.0347 41.6016V40.8516C55.0347 40.3338 54.6149 39.9141 54.0972 39.9141C53.5794 39.9141 53.1597 40.3338 53.1597 40.8516V41.6016Z" fill="white"/>
<path d="M34.1516 53.1596H33.4016C32.8839 53.1596 32.4641 53.5794 32.4641 54.0971C32.4641 54.6149 32.8839 55.0346 33.4016 55.0346H34.1516C34.6694 55.0346 35.0891 54.6149 35.0891 54.0971C35.0891 53.5794 34.6694 53.1596 34.1516 53.1596Z" fill="white"/>
<path d="M29.207 53.1596H27.3428C26.825 53.1596 26.4053 53.5794 26.4053 54.0971C26.4053 54.6149 26.825 55.0346 27.3428 55.0346H29.207C29.7248 55.0346 30.1445 54.6149 30.1445 54.0971C30.1445 53.5794 29.7248 53.1596 29.207 53.1596Z" fill="white"/>
<path d="M23.1484 53.1596H22.3984C21.8807 53.1596 21.4609 53.5794 21.4609 54.0971C21.4609 54.6149 21.8807 55.0346 22.3984 55.0346H23.1484C23.6662 55.0346 24.0859 54.6149 24.0859 54.0971C24.0859 53.5794 23.6662 53.1596 23.1484 53.1596Z" fill="white"/>
<path d="M9.90283 32.4641C9.38508 32.4641 8.96533 32.8838 8.96533 33.4016V34.1516C8.96533 34.6693 9.38508 35.0891 9.90283 35.0891C10.4206 35.0891 10.8403 34.6693 10.8403 34.1516V33.4016C10.8403 32.8838 10.4206 32.4641 9.90283 32.4641Z" fill="white"/>
<path d="M10.8403 27.3428C10.8403 26.8251 10.4206 26.4053 9.90283 26.4053C9.38508 26.4053 8.96533 26.8251 8.96533 27.3428V29.2071C8.96533 29.7248 9.38508 30.1446 9.90283 30.1446C10.4206 30.1446 10.8403 29.7248 10.8403 29.2071V27.3428Z" fill="white"/>
<path d="M10.8403 22.3983C10.8403 21.8806 10.4206 21.4608 9.90283 21.4608C9.38508 21.4608 8.96533 21.8806 8.96533 22.3983V23.1483C8.96533 23.6661 9.38508 24.0858 9.90283 24.0858C10.4206 24.0858 10.8403 23.6661 10.8403 23.1483V22.3983Z" fill="white"/>
<path d="M39.0567 40.8583L41.0335 41.9996C41.5593 42.3032 42.1717 42.3837 42.7585 42.2266C43.345 42.0695 43.8352 41.6932 44.1387 41.1675L46.0087 37.9286C46.3123 37.4027 46.393 36.7901 46.2358 36.2036C46.0787 35.6171 45.7025 35.1268 45.1767 34.8233L43.2011 33.6827C43.069 33.6065 42.9958 33.4518 43.0148 33.2887C43.0641 32.8633 43.0891 32.4297 43.0891 32C43.0891 31.5702 43.0641 31.1366 43.0148 30.711C42.996 30.5481 43.0691 30.3935 43.2011 30.3172L45.1767 29.1766C45.7026 28.873 46.0787 28.3828 46.2358 27.7963C46.393 27.2098 46.3123 26.5972 46.0087 26.0713L44.1387 22.8323C43.8351 22.3065 43.345 21.9303 42.7585 21.7732C42.1721 21.6161 41.5593 21.6967 41.0335 22.0002L39.0567 23.1415C38.9237 23.2182 38.7521 23.2041 38.6197 23.1053C37.9322 22.5931 37.1856 22.1612 36.4005 21.8215C36.2442 21.7538 36.1433 21.6076 36.1433 21.4488V19.1767C36.1433 17.9232 35.1236 16.9035 33.8701 16.9035H30.1301C28.8766 16.9035 27.8568 17.9232 27.8568 19.1767V21.4488C27.8568 21.6076 27.7558 21.7538 27.5997 21.8215C26.8146 22.1611 26.0678 22.5931 25.3803 23.1053C25.248 23.204 25.0765 23.2181 24.9433 23.1413L22.9666 22.0001C22.4407 21.6965 21.8282 21.6157 21.2416 21.7731C20.6551 21.9302 20.1648 22.3065 19.8613 22.8322L17.9913 26.0711C17.6877 26.597 17.6071 27.2096 17.7642 27.7961C17.9213 28.3826 18.2976 28.8728 18.8233 29.1763L20.799 30.317C20.9311 30.3932 21.0042 30.5478 20.9852 30.711C20.936 31.1363 20.911 31.57 20.911 31.9997C20.911 32.4295 20.936 32.8631 20.9852 33.2887C21.0041 33.4516 20.931 33.6062 20.799 33.6825L18.8233 34.8231C18.2975 35.1267 17.9213 35.6168 17.7642 36.2034C17.6071 36.7899 17.6877 37.4025 17.9913 37.9283L19.8613 41.1673C20.165 41.6932 20.6551 42.0693 21.2416 42.2265C21.8281 42.3836 22.4407 42.303 22.9666 41.9995L24.9433 40.8582C25.0762 40.7815 25.248 40.7956 25.3803 40.8943C26.0678 41.4066 26.8145 41.8385 27.5996 42.1782C27.7558 42.2458 27.8567 42.3921 27.8567 42.5508V44.823C27.8567 46.0765 28.8765 47.0962 30.13 47.0962H33.87C35.1235 47.0962 36.1432 46.0765 36.1432 44.823V42.5508C36.1432 42.3921 36.2442 42.2458 36.4003 42.1782C37.1855 41.8386 37.9322 41.4066 38.6197 40.8943C38.7522 40.7958 38.9237 40.7816 39.0567 40.8583ZM35.6558 40.4575C34.8128 40.8221 34.2682 41.6438 34.2682 42.551V44.8231C34.2682 45.0427 34.0896 45.2213 33.87 45.2213H30.13C29.9103 45.2213 29.7317 45.0427 29.7317 44.8231V42.551C29.7317 41.644 29.1871 40.8222 28.3441 40.4575C27.692 40.1753 27.0717 39.8165 26.5006 39.391C26.094 39.0878 25.6117 38.9341 25.1295 38.9341C24.742 38.9341 24.3542 39.0335 24.0058 39.2346L22.0291 40.3758C21.9047 40.4476 21.7865 40.4316 21.727 40.4156C21.6675 40.3997 21.557 40.3543 21.4851 40.2301L19.6151 36.9911C19.5433 36.8668 19.5593 36.7485 19.5753 36.689C19.5913 36.6295 19.6366 36.519 19.7608 36.4471L21.7366 35.3065C22.5168 34.856 22.953 33.9791 22.8478 33.073C22.8068 32.719 22.7861 32.358 22.7861 32C22.7861 31.642 22.807 31.281 22.8478 30.9271C22.953 30.0208 22.5168 29.144 21.7366 28.6935L19.761 27.5528C19.6367 27.4811 19.5913 27.3706 19.5755 27.311C19.5596 27.2513 19.5435 27.1331 19.6152 27.0088L21.4852 23.7698C21.557 23.6455 21.6675 23.6002 21.7271 23.5843C21.7867 23.5683 21.905 23.5523 22.0292 23.6241L24.006 24.7653C24.7881 25.217 25.7673 25.1556 26.5007 24.6091C27.0718 24.1836 27.6922 23.8247 28.3443 23.5426C29.1873 23.178 29.732 22.3562 29.732 21.4491V19.177C29.732 18.9573 29.9106 18.7787 30.1302 18.7787H33.8702C34.0898 18.7787 34.2685 18.9573 34.2685 19.177V21.4491C34.2685 22.3561 34.8131 23.1778 35.6561 23.5426C36.3082 23.8247 36.9285 24.1836 37.4996 24.6091C38.2331 25.1557 39.2123 25.2171 39.9943 24.7655L41.9711 23.6242C42.0955 23.5525 42.2137 23.5685 42.2732 23.5845C42.3327 23.6003 42.4432 23.6457 42.5151 23.77L44.3851 27.009C44.4568 27.1332 44.4408 27.2516 44.4248 27.3111C44.4088 27.3706 44.3636 27.4811 44.2393 27.553L42.2636 28.6936C41.4833 29.1441 41.0472 30.021 41.1523 30.9271C41.1933 31.2811 41.2141 31.6421 41.2141 32.0001C41.2141 32.3581 41.1932 32.7191 41.1523 33.073C41.0472 33.9792 41.4833 34.8561 42.2636 35.3066L44.2392 36.4472C44.3635 36.519 44.4088 36.6295 44.4247 36.6891C44.4406 36.7487 44.4567 36.867 44.385 36.9912L42.515 40.2302C42.4432 40.3546 42.3327 40.3998 42.2731 40.4157C42.2135 40.4317 42.0952 40.4477 41.971 40.376L39.9942 39.2347C39.2122 38.7831 38.2328 38.8445 37.4995 39.391C36.9282 39.8165 36.308 40.1752 35.6558 40.4575Z" fill="white"/>
<path d="M32.0001 28.6224C30.1377 28.6224 28.6226 30.1376 28.6226 31.9999C28.6226 33.8623 30.1377 35.3774 32.0001 35.3774C33.8624 35.3774 35.3776 33.8623 35.3776 31.9999C35.3776 30.1376 33.8624 28.6224 32.0001 28.6224ZM32.0001 33.5024C31.1716 33.5024 30.4976 32.8284 30.4976 31.9999C30.4976 31.1714 31.1716 30.4974 32.0001 30.4974C32.8286 30.4974 33.5026 31.1714 33.5026 31.9999C33.5026 32.8284 32.8286 33.5024 32.0001 33.5024Z" fill="white"/>
<path d="M32 24.749C28.0018 24.749 24.749 28.0017 24.749 32C24.749 35.9982 28.0018 39.251 32 39.251C35.9983 39.251 39.251 35.9982 39.251 32C39.251 28.0017 35.9983 24.749 32 24.749ZM32 37.376C29.0356 37.376 26.624 34.9643 26.624 32C26.624 29.0356 29.0356 26.624 32 26.624C34.9644 26.624 37.376 29.0356 37.376 32C37.376 34.9643 34.9644 37.376 32 37.376Z" fill="white"/>
</g>
<defs>
<clipPath id="clip0_126_530">
<rect width="64" height="64" fill="white"/>
</clipPath>
</defs>
</svg>
