<svg width="86" height="86" viewBox="0 0 86 86" fill="none" xmlns="http://www.w3.org/2000/svg">
<path fill-rule="evenodd" clip-rule="evenodd" d="M26.5391 34.7737C26.5391 27.8737 20.9254 22.2601 14.0254 22.2601C7.1254 22.2601 1.51172 27.8737 1.51172 34.7737C1.51172 41.6737 7.1254 47.2872 14.0254 47.2872C20.9254 47.2872 26.5391 41.6737 26.5391 34.7737ZM14.0254 44.9357C8.42195 44.9357 3.86328 40.377 3.86328 34.7737C3.86328 29.1703 8.42195 24.6116 14.0254 24.6116C19.6288 24.6116 24.1875 29.1703 24.1875 34.7737C24.1875 40.3772 19.6288 44.9357 14.0254 44.9357ZM14.0254 26.0407C9.21006 26.0407 5.29253 29.9582 5.29253 34.7737C5.29253 39.5891 9.21006 43.5066 14.0254 43.5066C18.8409 43.5066 22.7584 39.5891 22.7584 34.7737C22.7584 29.9582 18.8409 26.0407 14.0254 26.0407ZM14.0254 41.1552C10.5068 41.1552 7.64409 38.2925 7.64409 34.7739C7.64409 31.2551 10.5068 28.3924 14.0254 28.3924C17.5442 28.3924 20.4069 31.2551 20.4069 34.7739C20.4069 38.2925 17.5442 41.1552 14.0254 41.1552ZM15.2012 33.8264C15.4108 34.0859 15.5371 34.4155 15.5371 34.7737C15.5371 35.6063 14.858 36.2854 14.0254 36.2854C13.9463 36.2854 13.869 36.2776 13.7931 36.2656L11.846 37.3898C11.6607 37.4967 11.4587 37.5474 11.2593 37.5474C10.8528 37.5474 10.4577 37.3366 10.2399 36.9593C9.9152 36.397 10.108 35.6779 10.6702 35.3532L12.617 34.2293C12.6739 34.0829 12.7522 33.947 12.8494 33.8266V30.3284C12.8494 29.6791 13.3759 29.1527 14.0252 29.1527C14.6746 29.1527 15.201 29.6791 15.201 30.3284L15.2012 33.8264ZM32.4071 17.0797C33.2318 17.0797 33.5571 17.7103 33.6371 17.9036C33.7174 18.097 33.9332 18.7729 33.3499 19.356C32.6011 20.1049 32.6011 21.3233 33.3499 22.0721L34.9533 23.6754C35.3159 24.0382 35.7982 24.2379 36.3113 24.2379C36.8243 24.2379 37.3067 24.0382 37.6695 23.6754C38.2539 23.0907 38.9294 23.3063 39.1226 23.3863C39.3156 23.4662 39.9458 23.7916 39.9458 24.6182C39.9458 25.6772 40.8073 26.5387 41.8664 26.5387H44.1338C45.1928 26.5387 46.0543 25.6772 46.0543 24.6182C46.0543 23.7934 46.6851 23.4681 46.8782 23.388C47.0714 23.3082 47.7478 23.092 48.3308 23.6754C49.0798 24.4238 50.2979 24.4238 51.0469 23.6752L52.6503 22.0718C53.3991 21.323 53.3991 20.1045 52.6503 19.3557C52.067 18.7725 52.283 18.0964 52.3631 17.9033C52.4432 17.7101 52.7684 17.0794 53.5931 17.0794C54.6522 17.0794 55.5138 16.2179 55.5138 15.1588V12.8913C55.5138 11.8322 54.6522 10.9707 53.5931 10.9707C52.7684 10.9707 52.443 10.3402 52.3631 10.1468C52.2831 9.95349 52.067 9.27742 52.6501 8.6944C53.013 8.33159 53.2128 7.84935 53.2128 7.3362C53.2128 6.82306 53.0131 6.34082 52.6503 5.97818L51.0467 4.37458C50.2977 3.62611 49.0796 3.62611 48.3307 4.37475C47.7475 4.95827 47.0714 4.74226 46.8782 4.66197C46.6851 4.58185 46.0543 4.25666 46.0543 3.43194C46.0543 2.37323 45.1928 1.51172 44.1338 1.51172H41.8664C40.8073 1.51172 39.9458 2.37323 39.9458 3.43227C39.9458 4.257 39.3151 4.58236 39.1219 4.66231C38.9289 4.7426 38.253 4.95861 37.6693 4.37491C37.3067 4.01227 36.8243 3.81255 36.3113 3.81255C35.7982 3.81255 35.3159 4.01227 34.9533 4.37508L33.35 5.97851C32.9872 6.34116 32.7873 6.82356 32.7873 7.33654C32.7873 7.84952 32.987 8.33192 33.3499 8.69457C33.9332 9.27775 33.7174 9.95383 33.6371 10.1472C33.557 10.3405 33.2318 10.971 32.4071 10.971C31.348 10.971 30.4865 11.8326 30.4865 12.8916V15.1592C30.4865 16.2182 31.348 17.0797 32.4071 17.0797ZM32.8381 13.2989C34.1684 13.1503 35.284 12.316 35.8096 11.0473C36.3352 9.77864 36.1361 8.39945 35.3006 7.35367L36.3281 6.32604C37.3742 7.16168 38.7529 7.36073 40.0217 6.83515C41.2906 6.30958 42.1249 5.19376 42.2735 3.86345H43.7263C43.875 5.19376 44.7094 6.30958 45.9781 6.83515C47.2469 7.36073 48.6259 7.16152 49.6717 6.32604L50.6992 7.35367C49.8635 8.39945 49.6647 9.77847 50.1902 11.0473C50.7158 12.316 51.8316 13.1504 53.1619 13.2989V14.752C51.8316 14.9007 50.7158 15.735 50.1902 17.0038C49.6647 18.2726 49.8637 19.6517 50.6992 20.6974L49.6717 21.7251C48.6259 20.8898 47.2474 20.6906 45.9781 21.2161C44.7093 21.7417 43.875 22.8574 43.7263 24.1877H42.2735C42.125 22.8562 41.2907 21.7397 40.0224 21.2143C38.7539 20.6887 37.3744 20.8884 36.3281 21.7251L35.3006 20.6974C36.1363 19.6517 36.3352 18.2726 35.8096 17.0038C35.284 15.7351 34.1684 14.9007 32.8381 14.7522V13.2989ZM43 20.6487C46.6521 20.6487 49.6235 17.6775 49.6235 14.0254C49.6235 10.3732 46.6521 7.40205 43 7.40205C39.3479 7.40205 36.3767 10.3732 36.3767 14.0254C36.3767 17.6775 39.3479 20.6487 43 20.6487ZM43 9.75361C45.3554 9.75361 47.2719 11.67 47.2719 14.0254C47.2719 16.3808 45.3554 18.2972 43 18.2972C40.6446 18.2972 38.7282 16.3808 38.7282 14.0254C38.7282 11.67 40.6446 9.75361 43 9.75361ZM40.3125 48.9135H45.6877C46.337 48.9135 46.8634 48.3871 46.8634 47.7377V38.5382H49.8162C50.2809 38.5382 50.7019 38.2646 50.8905 37.84C51.0793 37.4155 51.0002 36.9195 50.6888 36.5747L43.8728 29.025C43.6499 28.7779 43.3327 28.637 43.0002 28.637C42.6676 28.637 42.3505 28.7779 42.1276 29.025L35.3116 36.5747C35.0002 36.9195 34.921 37.4155 35.1098 37.84C35.2985 38.2646 35.7196 38.5382 36.1842 38.5382H39.1367V47.7377C39.1367 48.3871 39.6631 48.9135 40.3125 48.9135ZM38.8297 36.1869L43.0002 31.5674L47.1707 36.1869H45.6877C45.0383 36.1869 44.5119 36.7133 44.5119 37.3626V46.5621H41.4883V37.3626C41.4883 36.7133 40.9619 36.1869 40.3125 36.1869H38.8297ZM78.2684 39.0544C79.4692 37.1127 80.6452 35.0228 81.3332 32.9066C82.4634 29.4303 81.9743 26.6051 79.8791 24.5098C76.8736 21.5045 71.9838 21.5045 68.9785 24.5098C66.9092 26.5794 66.3905 29.3201 67.4366 32.6563C68.114 34.8162 69.3634 37.0126 70.6201 39.0494C67.3363 39.5588 64.3692 40.7979 64.3692 43.027C64.3692 45.9544 69.5837 47.2876 74.4288 47.2876C79.2739 47.2876 84.4883 45.9542 84.4883 43.0269C84.4883 40.8057 81.5372 39.5669 78.2684 39.0544ZM70.6413 26.1726C71.6854 25.1283 73.057 24.6062 74.4286 24.6062C75.8003 24.6062 77.1719 25.1283 78.216 26.1726C81.3157 29.2722 78.6705 34.0684 75.1704 39.5576C74.9181 39.9532 74.6712 40.3405 74.4359 40.7161C74.1464 40.2456 73.8421 39.7626 73.53 39.2674C70.0295 33.7118 67.594 29.2198 70.6413 26.1726ZM74.4286 44.9358C69.4873 44.9358 66.9072 43.5676 66.7236 43.027C66.8658 42.614 68.5334 41.5996 71.9934 41.2414C72.5151 42.074 72.9999 42.8644 73.397 43.5909C73.6032 43.968 73.9986 44.2027 74.4286 44.2027C74.8585 44.2027 75.254 43.9682 75.4603 43.5909C75.8365 42.9031 76.3403 42.0992 76.8845 41.2437C80.3306 41.604 81.9916 42.6157 82.1337 43.027C81.9503 43.5677 79.3699 44.9358 74.4286 44.9358ZM40.764 52.304C38.1963 49.7638 35.0445 47.9615 31.5885 47.0467L32.378 44.1004C32.4983 43.6516 32.3429 43.174 31.9816 42.8819C31.6205 42.5895 31.1209 42.5378 30.707 42.7492L21.6505 47.3788C21.3544 47.5301 21.1362 47.8 21.05 48.1214C20.9638 48.4427 21.0181 48.7853 21.1988 49.0647L26.7272 57.6025C26.9796 57.9924 27.4375 58.1971 27.8974 58.1247C28.3563 58.0524 28.7295 57.7164 28.85 57.2676L29.5885 54.5111C32.2342 55.2085 34.5992 56.7435 36.3303 58.9068C36.5554 59.1882 36.8943 59.3481 37.2482 59.3481C37.3074 59.3481 37.3667 59.3437 37.4261 59.3346C37.8417 59.271 38.1916 58.9906 38.3441 58.5991C39.0017 56.9107 39.862 55.3005 40.9012 53.813C41.2288 53.3439 41.1708 52.7066 40.764 52.304ZM36.8935 56.035C34.7176 53.917 31.9544 52.4926 28.9461 51.9655C28.8777 51.9536 28.8097 51.9477 28.7421 51.9477C28.2191 51.9477 27.7471 52.2981 27.6073 52.8193L27.2632 54.1037L23.8805 48.8796L29.4217 46.047L29.0025 47.6117C28.9185 47.9255 28.9681 48.2601 29.1392 48.5362C29.3107 48.8122 29.5885 49.0051 29.907 49.0689C33.0739 49.7036 35.993 51.165 38.4059 53.3143C37.8462 54.1892 37.3408 55.0985 36.8935 56.035ZM64.3497 47.3788L55.293 42.7492C54.8794 42.5379 54.3797 42.5897 54.0184 42.8819C53.6571 43.174 53.5017 43.6516 53.622 44.1004L54.4115 47.0469C45.489 49.411 39.1367 57.5748 39.1367 66.9164V83.3125C39.1367 83.9619 39.6631 84.4883 40.3125 84.4883H45.6875C46.3369 84.4883 46.8633 83.9619 46.8633 83.3125V66.9164C46.8633 61.0328 50.8189 55.9758 56.4116 54.5106L57.1504 57.2679C57.2708 57.7168 57.6439 58.0527 58.1029 58.1251C58.5623 58.1975 59.0205 57.9927 59.2731 57.6029L64.8015 49.065C64.9822 48.7857 65.0363 48.443 64.9503 48.1217C64.8643 47.8004 64.6458 47.5303 64.3497 47.3788ZM58.737 54.1037L58.3928 52.8193C58.2351 52.2309 57.6546 51.86 57.0541 51.9655C49.7866 53.239 44.5117 59.5269 44.5117 66.9164V82.1367H41.4883V66.9164C41.4883 58.2714 47.6302 50.7655 56.0928 49.069C56.4113 49.0052 56.6893 48.8124 56.8606 48.5364C57.0319 48.2603 57.0813 47.9257 56.9973 47.6119L56.5781 46.0471L62.1195 48.8799L58.737 54.1037ZM74.4175 31.2457C73.4924 31.2457 72.7379 30.4912 72.7379 29.566C72.7379 28.6409 73.4924 27.8863 74.4175 27.8863C75.3427 27.8863 76.0972 28.6409 76.0972 29.566C76.0972 30.4912 75.3427 31.2457 74.4175 31.2457Z" fill="white"/>
</svg>
