<svg width="71" height="71" viewBox="0 0 71 71" fill="none" xmlns="http://www.w3.org/2000/svg">
<g clip-path="url(#clip0_126_563)">
<path d="M66.3535 24.899C67.6365 22.8375 68.6784 20.3716 68.7898 17.7037C68.8805 15.5311 68.0769 13.3832 66.5848 11.8108C65.1121 10.2589 63.1335 9.39155 61.0136 9.36867C60.9842 9.36839 60.9555 9.36826 60.9263 9.36826C59.0597 9.36826 57.2938 10.0147 55.8786 11.2022C50.0688 6.71962 42.8615 4.25889 35.5002 4.25889C30.6954 4.25889 25.9163 5.30794 21.5772 7.2983C21.4175 5.49141 20.6524 3.76369 19.3988 2.44257C17.9261 0.890551 15.9475 0.0234355 13.8278 0.000554688C13.7981 0.000138672 13.7694 0 13.7401 0C11.6531 0 9.6902 0.806238 8.20475 2.27574C6.69849 3.76577 5.86882 5.7535 5.86882 7.87226C5.86882 11.3744 7.51264 14.5557 9.29013 16.9721C7.20465 19.614 5.53947 22.5371 4.33622 25.6711C4.13071 26.2066 4.39821 26.8074 4.93348 27.013C5.05606 27.0599 5.1817 27.0822 5.30553 27.0822C5.72294 27.0822 6.11677 26.8286 6.27541 26.4156C7.33722 23.6499 8.78329 21.0593 10.5803 18.6984C10.5555 18.943 10.5396 19.1893 10.5396 19.4343V24.4809C10.5396 25.475 11.0868 26.3786 11.9676 26.8395C12.3571 27.0434 12.7805 27.144 13.2025 27.144C13.7344 27.144 14.2642 26.9836 14.7197 26.6674L18.4422 24.0829C19.4839 23.3597 20.7048 22.9774 21.9732 22.9774H26.764C28.6222 22.9774 30.3692 22.2538 31.6833 20.9399L36.4109 16.2123C37.9994 14.6236 38.0871 12.0531 36.6104 10.3598L34.3083 7.72014C33.9837 7.34795 33.8529 6.85136 33.9307 6.37877C34.4533 6.35242 34.9765 6.33606 35.5002 6.33606C42.3442 6.33606 49.0453 8.60514 54.4683 12.7399C53.5509 14.0502 53.0551 15.6059 53.0551 17.2407C53.0551 18.6799 53.3344 20.0642 53.7848 21.3643C53.4785 23.6237 53.8092 25.9162 54.7437 27.9972L56.7644 32.496C57.8466 34.9051 60.2525 36.462 62.8937 36.462C64.234 36.462 65.5304 36.0666 66.6426 35.319L66.7069 35.2758C66.7645 36.0555 66.7936 36.8403 66.7936 37.6296C66.7936 54.8849 52.7554 68.9231 35.5001 68.9231C18.2447 68.9231 4.20656 54.8847 4.20656 37.6293C4.20656 35.2075 4.48404 32.7956 5.03138 30.4605C5.16229 29.902 4.81575 29.3432 4.25731 29.2123C3.69888 29.0807 3.1399 29.4278 3.00913 29.9864C2.42532 32.4768 2.12939 35.0483 2.12939 37.6294C2.12939 46.5431 5.60063 54.9232 11.9035 61.2261C18.2063 67.5289 26.5864 71 35.5001 71C44.4138 71 52.7939 67.5289 59.0966 61.226C65.3995 54.9231 68.8708 46.5429 68.8708 37.6293C68.8708 33.2183 68.0224 28.9378 66.3535 24.899ZM9.66566 3.75232C10.7591 2.67054 12.204 2.07717 13.7408 2.07717C13.7622 2.07717 13.7837 2.0773 13.8052 2.07758C15.358 2.09422 16.8093 2.73156 17.8918 3.87227C18.9992 5.03934 19.5958 6.63448 19.5284 8.2489C19.3352 12.8769 15.6155 17.0428 14.0251 18.6188C13.8685 18.774 13.6139 18.7742 13.4582 18.6198C11.8009 16.9775 7.94599 12.6426 7.94599 7.87226C7.94599 6.31248 8.5567 4.84936 9.66566 3.75232ZM32.7427 9.08523L35.045 11.725C35.8064 12.5982 35.7613 13.924 34.9419 14.7433L30.2143 19.4709C29.2927 20.3927 28.0674 20.9002 26.764 20.9002H21.9732C20.2795 20.9002 18.6488 21.4108 17.2577 22.3766L13.5352 24.9611C13.2729 25.1436 13.0251 25.0483 12.9305 24.9989C12.8362 24.9496 12.617 24.8002 12.617 24.4809V20.5419C12.9688 20.7199 13.3547 20.8102 13.7411 20.8102C14.3734 20.8102 15.0059 20.5716 15.4875 20.0944C17.4906 18.1092 20.7594 14.2492 21.4722 9.65253C24.7045 8.02993 28.2269 6.97852 31.8355 6.55294C31.8136 7.46318 32.1226 8.37398 32.7427 9.08523ZM60.927 11.4453C60.9483 11.4453 60.9698 11.4454 60.9912 11.4457C62.5441 11.4623 63.9955 12.0998 65.078 13.2405C66.1854 14.4076 66.782 16.0027 66.7146 17.617C66.5214 22.245 62.8017 26.4109 61.2112 27.987C61.0547 28.1422 60.8001 28.1425 60.6443 27.988C58.9871 26.3456 55.1323 22.0107 55.1323 17.2405C55.1323 15.6807 55.743 14.2175 56.8519 13.1204C57.9452 12.0388 59.3901 11.4453 60.927 11.4453ZM65.4836 33.5949C64.7152 34.1115 63.8196 34.3845 62.8937 34.3845C61.0691 34.3845 59.4068 33.309 58.6593 31.6445L56.6385 27.1457C56.4616 26.7516 56.312 26.3481 56.1874 25.9382C57.2121 27.3939 58.3097 28.5989 59.1822 29.4635C59.6632 29.94 60.2949 30.1782 60.9268 30.1782C61.5592 30.1782 62.1916 29.9395 62.6732 29.4624C63.3308 28.8107 64.1249 27.9558 64.9203 26.9405C65.6303 28.8912 66.1405 30.8979 66.4472 32.9471L65.4836 33.5949Z" fill="white"/>
<path d="M60.9272 21.8795C63.3437 21.8795 65.3095 19.9135 65.3095 17.4972C65.3095 15.0808 63.3436 13.1149 60.9272 13.1149C58.5107 13.1149 56.5449 15.0808 56.5449 17.4972C56.5449 19.9135 58.5107 21.8795 60.9272 21.8795ZM60.9272 15.1919C62.1983 15.1919 63.2324 16.226 63.2324 17.497C63.2324 18.7681 62.1983 19.8022 60.9272 19.8022C59.6562 19.8022 58.6221 18.7681 58.6221 17.497C58.6221 16.226 59.6562 15.1919 60.9272 15.1919Z" fill="white"/>
<path d="M45.0929 22.7096C43.6202 21.1576 41.6418 20.2902 39.5219 20.2673C39.4925 20.267 39.4638 20.2669 39.4345 20.2669C37.3475 20.2669 35.3846 21.0731 33.8992 22.5427C32.7759 23.6538 32.0296 25.0418 31.7223 26.5543C29.3369 26.4507 27.0231 27.5583 25.6167 29.5452L22.127 34.4747C20.7651 36.3983 20.5956 38.8915 21.6467 40.9663C21.2028 41.9616 20.9673 43.0474 20.9673 44.171C20.9673 48.7459 23.7714 52.772 26.0151 55.2614L25.7892 61.4009C25.7354 62.865 26.4158 64.2464 27.6092 65.0962C28.3602 65.6311 29.2434 65.8988 30.1272 65.8988C30.9939 65.8987 31.8611 65.641 32.6037 65.1252L42.1637 58.4836C43.6524 57.4494 44.9379 56.1749 45.9849 54.6959L48.871 50.6193C49.2025 50.1511 49.0917 49.5028 48.6234 49.1714C48.1553 48.8398 47.5069 48.9508 47.1756 49.4189L44.2894 53.4959C43.3821 54.7773 42.2683 55.8817 40.9784 56.7778L31.4183 63.4194C30.636 63.9626 29.5895 63.9566 28.8139 63.4043C28.1916 62.9611 27.8367 62.2407 27.8649 61.4771L28.0341 56.9732C28.2945 57.062 28.5664 57.109 28.839 57.109C29.4712 57.109 30.1039 56.8703 30.5853 56.393C32.777 54.2209 36.4862 49.805 36.7019 44.6343C36.7924 42.4616 35.9887 40.3137 34.4966 38.7413C33.0239 37.1893 31.0453 36.3221 28.9254 36.2992C26.8118 36.2737 24.8088 37.0845 23.3028 38.5746C23.2327 38.644 23.1656 38.7155 23.0984 38.7871C22.9269 37.7157 23.1687 36.5977 23.822 35.6749L27.3117 30.7454C28.2953 29.3562 29.9071 28.577 31.5738 28.6295C31.7971 33.7715 35.472 38.1643 37.6901 40.3623C38.1711 40.8389 38.8028 41.0771 39.4347 41.0771C40.0672 41.0771 40.6996 40.8386 41.1813 40.3613C42.0855 39.4651 43.2477 38.1861 44.3168 36.6306L49.7058 40.4456C50.3859 40.9271 50.8377 41.6444 50.9783 42.4659C51.1188 43.2871 50.931 44.1142 50.4495 44.7941L49.6918 45.8643C49.3604 46.3325 49.4712 46.9807 49.9394 47.3122C50.1217 47.4412 50.3311 47.5033 50.5386 47.5033C50.8642 47.5033 51.1848 47.3506 51.3871 47.0647L52.1448 45.9944C52.9469 44.8615 53.2597 43.4839 53.0256 42.1156C52.7917 40.7475 52.0389 39.5523 50.9059 38.7503L45.4114 34.8607C46.4318 33.005 47.2028 30.8768 47.2978 28.6025C47.3888 26.4299 46.585 24.282 45.0929 22.7096ZM28.8393 38.3758C28.8607 38.3758 28.8822 38.3759 28.9034 38.3762C30.4564 38.3928 31.9077 39.0303 32.9902 40.171C34.0976 41.3381 34.6942 42.9332 34.6269 44.5477C34.4338 49.1758 30.7139 53.3414 29.1233 54.9177C28.967 55.0729 28.7127 55.073 28.5567 54.9184C26.8993 53.2762 23.0445 48.9418 23.0445 44.171C23.0445 42.6114 23.6552 41.1483 24.764 40.0511C25.8576 38.9692 27.3026 38.3758 28.8393 38.3758ZM39.7194 38.8858C39.5631 39.0411 39.3085 39.0414 39.1525 38.8868C37.4952 37.2444 33.6404 32.9095 33.6404 28.1393C33.6404 26.5795 34.2511 25.1163 35.3601 24.0192C36.4535 22.9375 37.8985 22.3441 39.4352 22.3441C39.4566 22.3441 39.4781 22.3442 39.4994 22.3445C41.0524 22.3611 42.5038 22.9986 43.5862 24.1393C44.6937 25.3064 45.2902 26.9015 45.2229 28.5158C45.0297 33.144 41.3098 37.3097 39.7194 38.8858Z" fill="white"/>
<path d="M42.7793 27.3573C42.2056 27.3573 41.7407 27.8223 41.7407 28.396C41.7407 29.667 40.7066 30.7011 39.4355 30.7011C38.1645 30.7011 37.1304 29.667 37.1304 28.396C37.1304 27.1249 38.1645 26.0908 39.4355 26.0908C39.5897 26.0908 39.7437 26.1061 39.893 26.1362C40.456 26.2484 41.0029 25.8846 41.116 25.3225C41.2288 24.76 40.8645 24.2127 40.3022 24.0995C40.0184 24.0425 39.7267 24.0137 39.4355 24.0137C37.019 24.0137 35.0532 25.9796 35.0532 28.396C35.0532 30.8123 37.0192 32.7783 39.4355 32.7783C41.852 32.7783 43.8178 30.8123 43.8178 28.396C43.818 27.8222 43.353 27.3573 42.7793 27.3573Z" fill="white"/>
<path d="M28.8396 48.81C31.2561 48.81 33.2219 46.8441 33.2219 44.4277C33.2219 42.0114 31.2559 40.0454 28.8396 40.0454C26.4232 40.0454 24.4573 42.0114 24.4573 44.4277C24.4573 46.8441 26.4231 48.81 28.8396 48.81ZM28.8396 42.1224C30.1107 42.1224 31.1447 43.1565 31.1447 44.4276C31.1447 45.6986 30.1107 46.7327 28.8396 46.7327C27.5685 46.7327 26.5344 45.6986 26.5344 44.4276C26.5344 43.1566 27.5685 42.1224 28.8396 42.1224Z" fill="white"/>
<path d="M18.1234 8.12895C18.1234 5.71246 16.1574 3.74664 13.7411 3.74664C11.3247 3.74664 9.35864 5.71259 9.35864 8.12895C9.35864 10.5453 11.3246 12.5111 13.741 12.5111C16.1573 12.5111 18.1234 10.5453 18.1234 8.12895ZM11.4359 8.12895C11.4359 6.85789 12.47 5.82381 13.7411 5.82381C15.0122 5.82381 16.0462 6.85789 16.0462 8.12895C16.0462 9.40002 15.0122 10.434 13.7411 10.434C12.47 10.434 11.4359 9.40002 11.4359 8.12895Z" fill="white"/>
</g>
<defs>
<clipPath id="clip0_126_563">
<rect width="71" height="71" fill="white"/>
</clipPath>
</defs>
</svg>
