<svg width="69" height="69" viewBox="0 0 69 69" fill="none" xmlns="http://www.w3.org/2000/svg">
<g clip-path="url(#clip0_126_554)">
<path d="M64.957 22.1016H52.0195V17.25C52.0195 15.0206 50.206 13.207 47.9766 13.207H39.8759C39.132 13.207 38.5282 13.8103 38.5282 14.5547C38.5282 15.2991 39.132 15.9023 39.8759 15.9023H47.9766C48.7199 15.9023 49.3242 16.5067 49.3242 17.25V58.2188C49.3242 58.9621 48.7199 59.5664 47.9766 59.5664H21.0234C20.2801 59.5664 19.6758 58.9621 19.6758 58.2188V17.25C19.6758 16.5067 20.2801 15.9023 21.0234 15.9023H29.0946C29.839 15.9023 30.4423 15.2991 30.4423 14.5547C30.4423 13.8103 29.839 13.207 29.0946 13.207H21.0234C18.794 13.207 16.9805 15.0206 16.9805 17.25V22.1016H4.04297C1.81355 22.1016 0 23.9151 0 26.1445V64.957C0 67.1865 1.81355 69 4.04297 69H28.8398C31.0693 69 32.8828 67.1865 32.8828 64.957V62.2617H36.1172V64.957C36.1172 67.1865 37.9307 69 40.1602 69H64.957C67.1865 69 69 67.1865 69 64.957V26.1445C69 23.9151 67.1865 22.1016 64.957 22.1016ZM52.0195 33.9599C52.1985 33.9446 52.3786 33.9341 52.5586 33.9341C56.0314 33.9341 58.8568 36.7594 58.8568 40.2318C58.8568 43.7051 56.0314 46.5299 52.5586 46.5299C52.3786 46.5299 52.1985 46.5194 52.0195 46.5041V33.9599ZM16.9805 46.5041C16.8015 46.5194 16.622 46.5299 16.4414 46.5299C12.9686 46.5299 10.1432 43.7046 10.1432 40.2323C10.1432 36.7594 12.9686 33.9341 16.4414 33.9341C16.6214 33.9341 16.8015 33.9446 16.9805 33.9599V46.5041ZM30.1875 64.957C30.1875 65.7003 29.5832 66.3047 28.8398 66.3047H4.04297C3.29965 66.3047 2.69531 65.7003 2.69531 64.957V26.1445C2.69531 25.4012 3.29965 24.7969 4.04297 24.7969H16.9805V31.2551C16.801 31.2446 16.6214 31.2388 16.4414 31.2388C11.4825 31.2388 7.44791 35.2728 7.44791 40.2318C7.44791 45.1907 11.4825 49.2253 16.4414 49.2253C16.6214 49.2253 16.801 49.22 16.9805 49.2089V53.0977H8.625C7.88063 53.0977 7.27734 53.7009 7.27734 54.4453C7.27734 55.1897 7.88063 55.793 8.625 55.793H16.9805V58.2188C16.9805 58.6915 17.0626 59.1447 17.2121 59.5664H11.4356C10.6912 59.5664 10.0879 60.1697 10.0879 60.9141C10.0879 61.6584 10.6912 62.2617 11.4356 62.2617H30.1875V64.957ZM66.3047 64.957C66.3047 65.7003 65.7003 66.3047 64.957 66.3047H40.1602C39.4168 66.3047 38.8125 65.7003 38.8125 64.957V62.2617H57.5644C58.3088 62.2617 58.9121 61.6584 58.9121 60.9141C58.9121 60.1697 58.3088 59.5664 57.5644 59.5664H51.7879C51.9374 59.1447 52.0195 58.6915 52.0195 58.2188V55.793H60.375C61.1194 55.793 61.7227 55.1897 61.7227 54.4453C61.7227 53.7009 61.1194 53.0977 60.375 53.0977H52.0195V49.2089C52.199 49.22 52.3786 49.2258 52.5586 49.2258C57.5175 49.2258 61.5521 45.1912 61.5521 40.2323C61.5521 35.2733 57.5175 31.2388 52.5586 31.2388C52.3786 31.2388 52.199 31.2446 52.0195 31.2551V24.7969H64.957C65.7003 24.7969 66.3047 25.4012 66.3047 26.1445V64.957Z" fill="white"/>
<path d="M43.6641 47.168C43.6641 46.4236 43.0608 45.8203 42.3164 45.8203H26.6836C25.9392 45.8203 25.3359 46.4236 25.3359 47.168C25.3359 47.9123 25.9392 48.5156 26.6836 48.5156H42.3164C43.0608 48.5156 43.6641 47.9123 43.6641 47.168Z" fill="white"/>
<path d="M29.4941 52.2891C28.7498 52.2891 28.1465 52.8923 28.1465 53.6367C28.1465 54.3811 28.7498 54.9844 29.4941 54.9844H39.5063C40.2501 54.9844 40.8539 54.3811 40.8539 53.6367C40.8539 52.8923 40.2501 52.2891 39.5063 52.2891H29.4941Z" fill="white"/>
<path d="M34.5 20.4844C28.4066 20.4844 23.4492 25.4417 23.4492 31.5352C23.4492 34.7811 24.8564 37.7044 27.0921 39.728C27.1516 39.7911 27.2179 39.848 27.289 39.899C29.2262 41.5715 31.7463 42.5865 34.5 42.5865C37.2537 42.5865 39.7727 41.5715 41.71 39.8996C41.7821 39.8485 41.8484 39.7911 41.9084 39.7274C44.1442 37.7038 45.5508 34.7811 45.5508 31.5352C45.5508 25.4417 40.5934 20.4844 34.5 20.4844ZM29.6627 38.3413C30.5155 36.4773 32.398 35.2349 34.5 35.2349C36.602 35.2349 38.4845 36.4773 39.3373 38.3413C37.9713 39.3152 36.302 39.8906 34.5 39.8906C32.698 39.8906 31.0287 39.3152 29.6627 38.3413ZM32.8044 30.8445V30.0838C32.8044 29.1483 33.5651 28.3882 34.5 28.3882C35.4349 28.3882 36.1956 29.1489 36.1956 30.0838V30.8445C36.1956 31.7794 35.4349 32.5396 34.5 32.5396C33.5651 32.5396 32.8044 31.7794 32.8044 30.8445ZM41.3225 36.3499C40.535 35.0743 39.4047 34.0504 38.0766 33.3861C38.5888 32.668 38.8909 31.791 38.8909 30.844V30.0833C38.8909 27.6622 36.921 25.6929 34.5 25.6929C32.079 25.6929 30.1091 27.6622 30.1091 30.0833V30.844C30.1091 31.791 30.4118 32.668 30.9234 33.3861C29.5958 34.0504 28.4656 35.0743 27.6775 36.3499C26.7136 34.9875 26.1445 33.3271 26.1445 31.5352C26.1445 26.9279 29.8927 23.1797 34.5 23.1797C39.1073 23.1797 42.8555 26.9279 42.8555 31.5352C42.8555 33.3271 42.2864 34.9875 41.3225 36.3499Z" fill="white"/>
<path d="M34.4858 6.67353C35.2302 6.67353 35.8335 6.06972 35.8335 5.32587V1.34766C35.8335 0.603287 35.2302 0 34.4858 0C33.7415 0 33.1382 0.603287 33.1382 1.34766V5.32587C33.1382 6.06972 33.7415 6.67353 34.4858 6.67353Z" fill="white"/>
<path d="M24.5447 9.57783C24.8079 9.84104 25.1527 9.97265 25.4976 9.97265C25.8424 9.97265 26.1877 9.84104 26.4504 9.57783C26.9768 9.0514 26.9768 8.19859 26.4504 7.67216L24.1162 5.33745C23.5898 4.81155 22.7364 4.81155 22.21 5.33745C21.6836 5.86388 21.6836 6.71722 22.21 7.24365L24.5447 9.57783Z" fill="white"/>
<path d="M43.5023 9.97265C43.8471 9.97265 44.1919 9.84104 44.4552 9.57783L46.7899 7.24365C47.3158 6.71722 47.3158 5.86388 46.7899 5.33745C46.2634 4.81155 45.4106 4.81155 44.8837 5.33745L42.549 7.67216C42.0231 8.19806 42.0231 9.0514 42.549 9.57783C42.8127 9.84104 43.157 9.97265 43.5023 9.97265Z" fill="white"/>
<path d="M34.5 13.207C34.1457 13.207 33.7977 13.3513 33.5472 13.6019C33.2966 13.8524 33.1523 14.2004 33.1523 14.5547C33.1523 14.909 33.2966 15.2569 33.5472 15.5075C33.7977 15.7581 34.1457 15.9023 34.5 15.9023C34.8543 15.9023 35.2023 15.7581 35.4528 15.5075C35.7034 15.2569 35.8477 14.909 35.8477 14.5547C35.8477 14.2004 35.7034 13.8524 35.4528 13.6019C35.2023 13.3513 34.8543 13.207 34.5 13.207Z" fill="white"/>
</g>
<defs>
<clipPath id="clip0_126_554">
<rect width="69" height="69" fill="white"/>
</clipPath>
</defs>
</svg>
