<svg width="30" height="20" viewBox="0 0 30 20" fill="none" xmlns="http://www.w3.org/2000/svg">
<path d="M28.4615 0H1.53849C0.692284 0 0 0.692284 0 1.53843V18.4615C0 19.3076 0.692284 20 1.53849 20H28.4615C29.3076 20 30 19.3077 30 18.4615V1.53843C29.9999 0.692284 29.3077 0 28.4615 0ZM27.8841 1.15377L15.885 10.1539C15.6692 10.318 15.3381 10.4208 14.9999 10.4192C14.6618 10.4208 14.3307 10.318 14.1149 10.1539L2.11576 1.15377H27.8841ZM21.4746 10.7477L28.013 18.8247C28.0196 18.8328 28.0276 18.8389 28.0346 18.8462H1.96535C1.97226 18.8386 1.98035 18.8328 1.98691 18.8247L8.52537 10.7477C8.72571 10.5 8.68774 10.1369 8.43959 9.93613C8.19192 9.7358 7.82881 9.77377 7.62842 10.0215L1.15383 18.0196V1.87494L13.423 11.0768C13.8842 11.4203 14.4453 11.5715 14.9999 11.573C15.5537 11.5718 16.1152 11.4207 16.5767 11.0768L28.8459 1.87494V18.0195L22.3715 10.0215C22.1711 9.77383 21.8076 9.73574 21.5603 9.93613C21.3122 10.1365 21.2741 10.5 21.4746 10.7477Z" fill="#595959"/>
</svg>
