<svg width="27" height="28" viewBox="0 0 27 28" fill="none" xmlns="http://www.w3.org/2000/svg">
<path d="M21.3499 16.75C20.7963 16.1736 20.1286 15.8654 19.421 15.8654C18.7191 15.8654 18.0457 16.1679 17.4693 16.7443L15.6659 18.5419C15.5175 18.462 15.3691 18.3878 15.2265 18.3136C15.021 18.2109 14.827 18.1139 14.6615 18.0112C12.9723 16.9383 11.4371 15.5401 9.96478 13.731C9.25143 12.8294 8.77205 12.0704 8.42394 11.2999C8.8919 10.8719 9.32561 10.4268 9.74792 9.99878C9.90771 9.83899 10.0675 9.67349 10.2273 9.5137C11.4257 8.31527 11.4257 6.76301 10.2273 5.56457L8.66933 4.00661C8.49242 3.8297 8.3098 3.64708 8.13859 3.46446C7.79618 3.11064 7.43665 2.7454 7.06571 2.40299C6.51215 1.85514 5.85016 1.56409 5.15392 1.56409C4.45769 1.56409 3.78428 1.85514 3.2136 2.40299C3.20789 2.4087 3.20789 2.4087 3.20219 2.4144L1.26186 4.37185C0.531391 5.10232 0.114792 5.99259 0.0234828 7.02552C-0.113481 8.69192 0.377306 10.2442 0.753957 11.26C1.67846 13.7539 3.05952 16.0651 5.11968 18.5419C7.61927 21.5266 10.6268 23.8835 14.0623 25.5442C15.3749 26.1662 17.1269 26.9024 19.0843 27.028C19.2041 27.0337 19.3297 27.0394 19.4438 27.0394C20.7621 27.0394 21.8692 26.5657 22.7367 25.6241C22.7424 25.6127 22.7538 25.607 22.7595 25.5956C23.0562 25.236 23.3987 24.9107 23.7582 24.5626C24.0036 24.3286 24.2547 24.0832 24.5001 23.8264C25.0651 23.2386 25.3618 22.5538 25.3618 21.8519C25.3618 21.1442 25.0593 20.4651 24.483 19.8944L21.3499 16.75ZM23.393 22.7593C23.3872 22.7593 23.3872 22.765 23.393 22.7593C23.1704 22.9989 22.9421 23.2158 22.6967 23.4555C22.3258 23.8093 21.9491 24.1803 21.5953 24.5969C21.0189 25.2132 20.3398 25.5042 19.4495 25.5042C19.3639 25.5042 19.2726 25.5042 19.187 25.4985C17.4921 25.3901 15.917 24.7281 14.7357 24.1631C11.5056 22.5995 8.66933 20.3795 6.31241 17.566C4.36638 15.2205 3.06522 13.0519 2.20349 10.7235C1.67276 9.30255 1.47872 8.19542 1.56433 7.15107C1.6214 6.48337 1.8782 5.92981 2.35187 5.45615L4.2979 3.51012C4.57753 3.2476 4.87429 3.10493 5.16534 3.10493C5.52487 3.10493 5.81592 3.32179 5.99853 3.50441C6.00424 3.51012 6.00995 3.51582 6.01565 3.52153C6.36377 3.84682 6.69477 4.18352 7.04288 4.54305C7.21979 4.72567 7.40241 4.90829 7.58503 5.09662L9.143 6.65458C9.74792 7.2595 9.74792 7.81877 9.143 8.4237C8.9775 8.5892 8.81771 8.75469 8.65221 8.91448C8.17284 9.40527 7.71629 9.86182 7.2198 10.307C7.20838 10.3184 7.19697 10.3241 7.19126 10.3355C6.70047 10.8263 6.79178 11.3056 6.89451 11.6309C6.90021 11.6481 6.90592 11.6652 6.91163 11.6823C7.31681 12.6639 7.88749 13.5884 8.75493 14.6898L8.76064 14.6955C10.3357 16.6358 11.9964 18.1481 13.8283 19.3066C14.0623 19.455 14.302 19.5748 14.5302 19.689C14.7357 19.7917 14.9297 19.8887 15.0952 19.9914C15.118 20.0029 15.1409 20.02 15.1637 20.0314C15.3577 20.1284 15.5404 20.1741 15.7287 20.1741C16.2023 20.1741 16.4991 19.8773 16.5961 19.7803L18.5479 17.8286C18.7419 17.6345 19.0501 17.4005 19.4096 17.4005C19.7634 17.4005 20.0545 17.6231 20.2314 17.8171C20.2371 17.8228 20.2371 17.8228 20.2428 17.8286L23.3872 20.973C23.975 21.5551 23.975 22.1543 23.393 22.7593Z" fill="#595959"/>
<path d="M14.5931 6.43202C16.0883 6.68312 17.4466 7.39076 18.5309 8.47506C19.6152 9.55936 20.3171 10.9176 20.5739 12.4128C20.6367 12.7894 20.962 13.0519 21.3329 13.0519C21.3786 13.0519 21.4185 13.0462 21.4642 13.0405C21.8865 12.972 22.1661 12.5726 22.0976 12.1503C21.7895 10.3412 20.9334 8.69192 19.6266 7.38506C18.3197 6.07819 16.6704 5.22217 14.8614 4.914C14.4391 4.84552 14.0453 5.12515 13.9711 5.54175C13.8969 5.95835 14.1708 6.36354 14.5931 6.43202Z" fill="#595959"/>
<path d="M26.9882 11.9276C26.4803 8.94864 25.0764 6.2379 22.9192 4.08071C20.7621 1.92353 18.0513 0.519653 15.0724 0.0117455C14.6558 -0.0624433 14.262 0.222898 14.1878 0.639497C14.1193 1.0618 14.399 1.45557 14.8213 1.52976C17.4806 1.9806 19.906 3.24181 21.835 5.16501C23.7639 7.09392 25.0194 9.51932 25.4702 12.1787C25.533 12.5554 25.8583 12.8179 26.2292 12.8179C26.2749 12.8179 26.3148 12.8122 26.3605 12.8065C26.7771 12.7437 27.0624 12.3442 26.9882 11.9276Z" fill="#595959"/>
</svg>
